<?xml version="1.0" encoding="UTF-8"?>
<svg xmlns="http://www.w3.org/2000/svg" xmlns:xlink="http://www.w3.org/1999/xlink" viewBox="0 0 24 24" width="24px" height="24px">
<g id="surface49367801">
<path style=" stroke:none;fill-rule:nonzero;fill:rgb(20.392157%,59.607846%,85.882354%);fill-opacity:1;" d="M 10.570312 15.464844 L 6.992188 12.003906 L 10.472656 8.671875 C 10.183594 8.386719 9.890625 8.085938 9.601562 7.773438 C 8.601562 6.730469 8.007812 5.390625 7.921875 3.976562 L 0.320312 11.261719 C -0.105469 11.667969 -0.105469 12.332031 0.320312 12.738281 L 12.078125 24 L 12.839844 23.113281 C 14.253906 21.519531 14.222656 19.171875 12.773438 17.609375 C 11.734375 16.484375 10.582031 15.472656 10.570312 15.464844 Z M 13.425781 8.535156 L 17.007812 11.996094 L 13.53125 15.324219 C 13.820312 15.609375 14.117188 15.910156 14.40625 16.222656 C 15.402344 17.265625 15.992188 18.609375 16.074219 20.023438 L 23.679688 12.738281 C 24.105469 12.332031 24.105469 11.667969 23.679688 11.261719 L 11.921875 0 L 11.160156 0.886719 C 9.746094 2.480469 9.777344 4.828125 11.226562 6.390625 C 12.265625 7.515625 13.417969 8.527344 13.425781 8.535156 Z M 13.425781 8.535156 "/>
</g>
</svg>
